# xmcd
#
# Track frame offsets:
# 182
# 14640
# 31455
# 45025
# 61210
# 74955
# 93737
# 110677
# 123390
# 136222
# 154747
# 167432
# 187785
# 208672
# 222330
# 239362
# 246755
# 254085
# 263682
# 274972
# 287652
# 299692
# 316852
#
# Disc length: 4372 seconds
#
#
# Revision: 5
# Processed by: cddbd v1.4PL0 Copyright (c) Steve Scherf et al.
# Submitted via: FreeRIP 2.10 
#
DISCID=64111217
DTITLE=Pino Daniele - Passa 'o tiempo e che fà
DYEAR=1995
DGENRE=Blues
TTITLE0=Alleria
TTITLE1=Je stò vicino a te
TTITLE2=Je so' pazzo
TTITLE3=Basta 'na jurnata e sole
TTITLE4=A me me piace 'o blues
TTITLE5=I say i' sto ccà
TTITLE6=A testa in giù
TTITLE7=Chillo è nu buono guaglione
TTITLE8=Musica musica
TTITLE9=Voglio di più
TTITLE10=Chi tene 'o mare
TTITLE11=E so' cuntento 'e stà'
TTITLE12=Quanno chiove
TTITLE13=Sotto 'o sole
TTITLE14=Putesse essere allero
TTITLE15=Viento
TTITLE16=Appocundria
TTITLE17=Terra mia
TTITLE18=e cerca 'e me capì'
TTITLE19=Cammina cammina
TTITLE20=Saglie saglie
TTITLE21=Napule è
TTITLE22=Qualcosa arriverà
EXTD=YEAR: 1995 ID3G:   0
EXTT0=
EXTT1=
EXTT2=
EXTT3=
EXTT4=
EXTT5=
EXTT6=
EXTT7=
EXTT8=
EXTT9=
EXTT10=
EXTT11=
EXTT12=
EXTT13=
EXTT14=
EXTT15=
EXTT16=
EXTT17=
EXTT18=
EXTT19=
EXTT20=
EXTT21=
EXTT22=
PLAYORDER=
